<svg width="70" height="70" viewBox="0 0 70 70" fill="none" xmlns="http://www.w3.org/2000/svg">
<circle cx="35" cy="35" r="31" stroke="#F6851D" stroke-width="2"/>
<path d="M47.2524 34.6304L41.4119 28.7965L47.2525 22.9626C47.9854 22.2306 47.4665 20.971 46.4267 20.971H29.2029C29.7358 18.995 28.2659 17.0568 26.2451 17.0012C24.5623 16.9548 23.1151 18.2645 23.0067 19.9445C22.9155 21.3585 23.7641 22.5907 24.9878 23.0796V50.8013C24.9878 51.401 25.4271 51.927 26.0231 51.9927C26.7275 52.0703 27.3237 51.5213 27.3237 50.8333V36.622H46.4265C47.463 36.622 47.9878 35.3648 47.2524 34.6304ZM26.124 20.9753C25.672 20.9753 25.3042 20.6076 25.3042 20.1556C25.3042 19.7036 25.672 19.3357 26.124 19.3357C26.576 19.3357 26.9437 19.7035 26.9437 20.1555C26.9437 20.6075 26.576 20.9753 26.124 20.9753ZM27.3238 34.286V23.3069H43.5805L38.9155 27.9718C38.4605 28.4267 38.4601 29.1656 38.9155 29.6209L43.5806 34.2859L27.3238 34.286Z" fill="#F6851D"/>
</svg>
