<svg width="70" height="70" viewBox="0 0 70 70" fill="none" xmlns="http://www.w3.org/2000/svg">
<circle cx="35" cy="35" r="31" stroke="#F6851D" stroke-width="2"/>
<path d="M30.4455 39.7076C30.4455 39.6239 30.377 39.5934 30.3237 39.5554C29.9965 39.3118 29.7073 39.0303 29.4714 38.703C29.342 38.5204 29.2659 38.5889 29.1746 38.7411C28.5962 39.7456 27.9113 40.6741 27.135 41.5264C27.0056 41.6634 27.0056 41.77 27.135 41.907C27.272 42.0439 27.3785 42.0287 27.5155 41.907C28.3527 41.1307 29.2811 40.4686 30.2705 39.8826C30.339 39.8446 30.4227 39.8141 30.4455 39.7228M32.6297 40.5523C32.2111 40.4229 31.8382 40.3316 31.4881 40.1946C31.2826 40.1185 31.1228 40.1261 30.9402 40.2251C30.0346 40.7426 29.1746 41.3057 28.3831 41.9907C27.6297 42.6452 27.7362 42.4549 28.3527 43.1246C28.5049 43.292 28.619 43.2768 28.7788 43.1246C29.5018 42.4549 30.2933 41.8917 31.138 41.3895C31.6099 41.1079 32.0969 40.8415 32.6221 40.5447M28.5125 36.4504C28.4668 36.4732 28.444 36.4732 28.4288 36.496C28.3831 36.5721 28.3375 36.6558 28.2918 36.7396C27.6906 37.8659 27.0209 38.9542 26.1837 39.9359C25.6967 40.4991 25.7043 40.4914 26.2294 41.0242C26.4196 41.2144 26.5414 41.222 26.7317 41.0242C27.5536 40.1109 28.2461 39.114 28.8397 38.0409C28.893 37.9496 28.9463 37.8583 28.9006 37.7517C28.7332 37.3408 28.619 36.907 28.5125 36.4732M28.6495 44.7228C28.6266 44.5021 28.5658 44.2814 28.4059 44.1216C27.2416 42.9496 26.0772 41.7776 24.9052 40.6208C24.616 40.3392 24.1594 40.3316 23.9235 40.5523C23.6952 40.773 23.718 41.2068 23.9767 41.5341C24.0072 41.5721 24.0376 41.6025 24.0681 41.633C25.1868 42.7517 26.3055 43.8704 27.4242 44.9891C27.5916 45.1642 27.7971 45.2555 28.033 45.2783C28.3831 45.3088 28.6419 45.0652 28.6419 44.7228M19.7911 51.3666C19.9813 51.359 20.1031 51.2448 20.2172 51.1307C22.2111 49.1368 24.2127 47.1353 26.2142 45.1413C26.3816 44.9739 26.3968 44.8674 26.2218 44.6923C25.5749 44.0683 24.9432 43.429 24.3116 42.7821C24.1366 42.5995 24.03 42.6299 23.8702 42.7898C23.4745 43.1931 23.0559 43.5736 22.6525 43.9694C21.062 45.5066 19.4638 47.0363 17.8656 48.5736C17.6602 48.7715 17.5993 48.9693 17.7972 49.2053C18.3679 49.8674 18.9387 50.5371 19.5095 51.1992C19.5856 51.2905 19.6769 51.359 19.7834 51.3666M34.3192 39.9892C35.3313 40.012 36.3968 39.837 37.4546 39.5782C40.6205 38.7943 43.5277 37.4245 46.2598 35.6513C47.3328 34.9511 48.3678 34.1825 49.1897 33.1855C50.9401 31.0546 51.6327 28.5965 51.3206 25.8644C51.0162 23.1856 49.7833 21.0242 47.5992 19.4489C45.6662 18.0486 43.482 17.493 41.1 17.7061C38.4516 17.9421 36.2598 19.0684 34.5779 21.1308C32.2644 23.9694 30.7195 27.219 29.6769 30.7046C29.1365 32.5006 28.8778 34.3195 29.1213 36.1992C29.3572 38.0485 30.4531 39.3042 32.2568 39.7837C32.9113 39.9587 33.5734 39.9968 34.3192 39.9892ZM52.0512 27.044C51.9523 30.4991 50.5748 33.3073 47.7666 35.3697C44.4561 37.805 40.8032 39.5249 36.7697 40.3849C35.9934 40.5523 35.202 40.6665 34.4029 40.636C34.1137 40.6284 33.8625 40.6893 33.6038 40.8111C32.0285 41.5417 30.5292 42.4092 29.2279 43.5736C29.0833 43.703 28.9843 43.8095 29.0909 44.0379C29.3877 44.6695 29.2964 45.2555 28.8702 45.6208C28.444 45.9937 27.7591 46.0318 27.234 45.6436C26.9143 45.4077 26.7545 45.4838 26.5034 45.7273C24.5932 47.6528 22.6754 49.5706 20.7576 51.4884C20.5293 51.7167 20.2933 51.945 19.9509 51.9906C19.578 52.0363 19.2659 51.9145 19.0224 51.633C18.4592 50.9785 17.8885 50.324 17.3329 49.6619C16.8687 49.0987 16.8839 48.6117 17.4166 48.1018C19.3877 46.2068 21.3588 44.3118 23.3375 42.4245C23.5506 42.2266 23.6038 42.0972 23.3983 41.8385C23.0787 41.4503 23.0102 40.9709 23.1853 40.4991C23.4364 39.8141 24.205 39.5554 24.9585 39.9054C25.1639 40.0044 25.2857 39.9739 25.4303 39.8141C26.6784 38.4214 27.584 36.8233 28.3298 35.1262C28.3679 35.0424 28.3755 34.9435 28.3755 34.8598C28.3527 32.63 28.9615 30.5295 29.7378 28.4747C30.7271 25.8492 32.0208 23.3834 33.7256 21.146C35.5596 18.7564 37.9341 17.3637 40.8869 17.0593C46.275 16.4961 51.1456 19.9968 51.9371 25.4458C52.0132 25.9709 52.0741 26.4961 52.0664 27.0288" fill="#F6851D"/>
<path d="M49.7132 46.4045C49.6676 44.5552 48.2521 43.1244 46.418 43.1397C44.523 43.1549 43.1684 44.6008 43.1455 46.4273C43.1227 48.2233 44.6752 49.7226 46.4408 49.6998C48.2444 49.6769 49.7285 48.1853 49.7132 46.4045ZM46.4408 42.5156C48.625 42.5156 50.3373 44.2355 50.3297 46.4349C50.3297 48.6115 48.6021 50.3162 46.3951 50.3162C44.2186 50.3162 42.5215 48.5886 42.5215 46.374C42.5215 44.2127 44.249 42.508 46.4332 42.508" fill="#F6851D"/>
<path d="M49.4251 25.4602C49.4251 25.4602 49.4935 25.4069 49.524 25.3841C49.5164 25.0721 49.3946 24.7829 49.3109 24.4861C49.2881 24.4024 49.2805 24.2578 49.1815 24.2654C49.0065 24.2654 48.9304 24.448 48.8162 24.5546C48.7325 24.6383 48.763 24.722 48.8315 24.7981C49.0293 25.0188 49.2272 25.2395 49.4251 25.4602ZM43.5651 19.4404C43.5651 19.4404 43.5271 19.5013 43.5118 19.5242C43.6793 19.6764 43.8543 19.8286 44.0141 19.9884C44.3642 20.3309 44.4479 20.3232 44.7523 19.9351C44.8513 19.8057 44.8132 19.7601 44.6838 19.722C44.3109 19.6003 43.9456 19.4937 43.5575 19.4404M40.4601 36.7387C40.4601 36.7387 40.4981 36.792 40.521 36.8224C41.0004 36.6169 41.4875 36.4115 41.9669 36.1984C42.0507 36.1603 42.2257 36.1299 42.1724 36.0233C42.0963 35.8711 41.9365 35.7494 41.8071 35.6276C41.7158 35.5439 41.6397 35.6048 41.5636 35.6733C41.1983 36.031 40.8254 36.3886 40.4601 36.7463M32.0583 28.6337C32.0583 28.6337 32.104 28.6718 32.1344 28.6946C32.4693 28.3521 32.8041 28.0097 33.1466 27.6672C33.3901 27.4237 33.385 27.1776 33.1314 26.929C33.1314 26.929 33.1009 26.8986 33.0857 26.8833C32.9639 26.7387 32.8802 26.7311 32.7965 26.929C32.5606 27.4998 32.3094 28.0629 32.0659 28.6337M39.486 19.684C39.7676 19.9427 39.9806 20.133 40.1937 20.3232C40.2851 20.407 40.3688 20.4298 40.4677 20.3385C40.7797 20.0341 41.0841 19.7296 41.3886 19.4328C40.7417 19.3339 40.1785 19.4861 39.486 19.684ZM49.699 27.6215C49.699 27.6215 49.6458 27.5759 49.6153 27.5607C49.4555 27.7433 49.3033 27.9336 49.1359 28.101C48.5042 28.7403 48.5042 28.7327 49.1891 29.3339C49.3413 29.4709 49.4098 29.4709 49.4631 29.2578C49.5925 28.7174 49.6838 28.1771 49.699 27.6215ZM48.8923 23.4968C48.8771 23.4511 48.8771 23.4283 48.8695 23.4054C48.6184 22.8499 48.3063 22.3248 47.9182 21.8453C47.8117 21.7159 47.728 21.7616 47.629 21.8605C47.4083 22.0812 47.1952 22.3095 46.9669 22.515C46.7843 22.6824 46.8071 22.8118 46.9821 22.964C47.3018 23.2684 47.5986 23.5881 47.9182 23.8849C48.0248 23.9914 48.1237 24.2197 48.2911 24.1132C48.5423 23.961 48.7553 23.7403 48.8923 23.4891M46.32 22.1954C46.3581 22.1649 46.419 22.1345 46.4646 22.0812C46.693 21.8529 46.9136 21.617 47.1572 21.3963C47.3246 21.2441 47.2942 21.1376 47.1267 21.0158C46.8299 20.7951 46.5331 20.5744 46.2135 20.3917C45.3992 19.9427 45.6503 19.9808 45.0263 20.5592C44.8589 20.7114 44.8589 20.8331 45.0263 20.9853C45.3916 21.3354 45.7493 21.7007 46.107 22.0584C46.1602 22.1117 46.2135 22.1802 46.3277 22.1802M42.9106 35.6961C42.9639 35.6809 43.0019 35.6733 43.0324 35.658C43.6945 35.3384 44.3337 34.9731 44.9654 34.585C45.1404 34.4784 45.0567 34.3871 44.9578 34.2882C44.699 34.0294 44.4251 33.7783 44.1815 33.5043C43.9989 33.3065 43.8771 33.3369 43.7021 33.5195C43.314 33.9305 42.903 34.3186 42.5149 34.722C42.4159 34.8285 42.18 34.9275 42.2942 35.0949C42.454 35.3384 42.6595 35.5591 42.9182 35.6961M36.6245 37.9564C37.4084 37.8042 38.1618 37.6291 38.8848 37.3628C39.0826 37.2867 38.9761 37.1649 38.8848 37.0736C38.5271 36.7159 38.1618 36.3582 37.8117 35.9929C37.6443 35.8179 37.5301 35.8103 37.3627 35.9929C37.005 36.3734 36.6245 36.7235 36.2668 37.0964C36.1679 37.1953 35.9624 37.2867 36.0689 37.4541C36.2059 37.6672 36.3734 37.8803 36.6321 37.964M35.6808 25.034C35.6428 24.9884 35.5971 24.9199 35.5438 24.859C35.2775 24.585 34.9959 24.3263 34.7371 24.0447C34.5697 23.862 34.4632 23.8468 34.3338 24.0827C34.0979 24.5165 33.8239 24.9351 33.5956 25.3765C33.1542 26.2136 33.1314 25.9244 33.7935 26.617C33.9304 26.7692 34.0446 26.7768 34.1968 26.617C34.6458 26.1528 35.11 25.7037 35.5667 25.2395C35.6199 25.1862 35.6884 25.133 35.6884 25.0188M31.0461 32.3095C31.0613 32.5683 31.3125 32.6748 31.4571 32.8574C31.5788 33.0097 31.693 32.9944 31.83 32.8574C32.2409 32.4389 32.6519 32.0203 33.0781 31.6094C33.2151 31.48 33.2227 31.3734 33.0781 31.2364C32.7052 30.8788 32.3399 30.5135 31.9822 30.1406C31.7919 29.9427 31.6473 29.996 31.5712 30.2167C31.3353 30.894 31.1907 31.5865 31.0461 32.3095ZM33.9913 38.139C34.4175 38.2379 34.5925 37.7965 34.8817 37.5606C35.0339 37.4389 35.0111 37.3171 34.8817 37.1877C34.5088 36.8224 34.1435 36.4571 33.7782 36.0842C33.626 35.9244 33.5119 35.9625 33.3749 36.1071C32.9868 36.5028 32.5986 36.8985 32.1953 37.279C31.9898 37.4769 32.0583 37.5759 32.2638 37.6824C32.7813 37.9564 33.3368 38.0934 33.9837 38.1314M30.8483 34.9122C30.9015 35.5591 31.0157 36.1908 31.3429 36.7692C31.4495 36.967 31.5484 37.0203 31.7311 36.8376C32.1192 36.4267 32.5225 36.031 32.9335 35.6352C33.0857 35.4906 33.0781 35.3765 32.9335 35.2319C32.6671 34.9807 32.4084 34.7144 32.1496 34.448C31.8148 34.1132 31.4799 34.1182 31.1451 34.4632C31.0233 34.5926 30.8406 34.6839 30.8635 34.9046M38.7858 19.9351C38.7858 19.9351 38.7097 19.958 38.6641 19.9808C38.0628 20.2243 37.5149 20.5668 36.9974 20.9473C36.868 21.0386 36.8452 21.1299 36.967 21.2517C37.3475 21.6246 37.7204 21.9975 38.0933 22.378C38.2151 22.5074 38.3216 22.4998 38.4434 22.378C38.8619 21.9519 39.2881 21.5257 39.7143 21.1071C39.836 20.9853 39.8437 20.8788 39.7143 20.757C39.4708 20.5287 39.2424 20.2852 39.0065 20.0493C38.9456 19.996 38.8924 19.9351 38.7934 19.9351M47.9334 32.1649C48.0476 32.1421 48.0856 32.066 48.1313 32.0051C48.4662 31.5941 48.7249 31.1299 48.976 30.6581C49.1587 30.3308 49.1283 30.0873 48.8315 29.8514C48.6488 29.7144 48.4966 29.5393 48.3368 29.3643C48.1846 29.1893 48.0628 29.1664 47.8878 29.3491C47.4996 29.76 47.0963 30.1558 46.6929 30.5515C46.5484 30.6885 46.5255 30.8027 46.6853 30.9549C47.0582 31.3126 47.4235 31.6855 47.7888 32.0508C47.8345 32.0964 47.8954 32.1269 47.941 32.1573M45.7112 34.0903C45.7645 34.0675 45.8102 34.0523 45.8482 34.0294C46.3809 33.6641 46.8984 33.276 47.3703 32.8346C47.4996 32.7129 47.4464 32.6139 47.3398 32.515C46.9745 32.1497 46.6016 31.7844 46.2439 31.4115C46.0993 31.2593 45.9928 31.2593 45.8406 31.4115C45.4372 31.8224 45.0339 32.2334 44.6153 32.6367C44.4631 32.7813 44.4707 32.8955 44.6153 33.0401C44.935 33.3445 45.2394 33.6565 45.5514 33.9686C45.5971 34.0142 45.6579 34.0523 45.7112 34.0979M37.7508 23.0401C37.7508 22.9412 37.7052 22.8879 37.6595 22.8423C37.279 22.4617 36.8909 22.0812 36.5179 21.6931C36.3657 21.5409 36.2668 21.6094 36.145 21.7312C35.7341 22.1497 35.3764 22.614 35.0263 23.0858C34.9198 23.2304 34.9198 23.3445 35.0568 23.4739C35.3764 23.7859 35.696 24.098 36.0081 24.4252C36.1679 24.5926 36.282 24.5622 36.4342 24.41C36.8224 24.0066 37.2257 23.6109 37.6291 23.2152C37.6823 23.1619 37.728 23.0934 37.766 23.0477M45.521 30.8027C45.521 30.7037 45.4753 30.6505 45.422 30.6048C45.0415 30.2243 44.6534 29.8438 44.2729 29.4556C44.1435 29.3263 44.0446 29.3491 43.9228 29.4709C43.5118 29.8894 43.1009 30.308 42.6747 30.7113C42.5225 30.8635 42.5377 30.9701 42.6823 31.1147C43.0476 31.4648 43.4053 31.8224 43.7554 32.1877C43.9152 32.3552 44.0293 32.3247 44.1815 32.1725C44.5773 31.7692 44.9806 31.3734 45.3764 30.9701C45.4296 30.9168 45.4753 30.8483 45.5134 30.8027M45.6503 26.7235C45.6503 26.7235 45.6047 26.6398 45.5666 26.6018C45.1785 26.206 44.7828 25.8179 44.3946 25.4298C44.2576 25.2928 44.1587 25.3537 44.0446 25.4602C43.6412 25.8712 43.2379 26.2821 42.8193 26.6779C42.6519 26.8377 42.6671 26.9518 42.8193 27.104C43.177 27.4465 43.5271 27.7966 43.8695 28.1543C44.0217 28.3065 44.1283 28.3369 44.2957 28.1695C44.6914 27.7585 45.11 27.3552 45.5134 26.9442C45.5666 26.891 45.6351 26.8377 45.6427 26.7235M35.1176 33.375C35.1176 33.375 35.0872 33.3065 35.0568 33.276C34.6534 32.8651 34.2425 32.4617 33.8391 32.0508C33.7097 31.9214 33.6108 32.0127 33.5195 32.104C33.1085 32.515 32.69 32.9336 32.2714 33.3445C32.1344 33.4815 32.142 33.588 32.2714 33.7174C32.6443 34.0751 33.0096 34.448 33.3673 34.8209C33.5195 34.9731 33.626 34.9579 33.7706 34.8133C34.174 34.4023 34.5849 33.999 34.9883 33.588C35.0415 33.5348 35.11 33.4815 35.1176 33.3673M49.6762 26.617C49.6381 26.5561 49.6077 26.4876 49.562 26.4419C49.1815 26.0538 48.7934 25.6809 48.4205 25.2928C48.2911 25.1634 48.1922 25.1786 48.0704 25.2928C47.6595 25.7114 47.2485 26.1299 46.8223 26.5409C46.6701 26.6855 46.6777 26.7996 46.8223 26.9442C47.1876 27.2943 47.5453 27.652 47.8954 28.0173C48.0552 28.1847 48.1694 28.1695 48.3216 28.0097C48.7097 27.6063 49.1206 27.2106 49.5164 26.8072C49.5697 26.754 49.6153 26.6855 49.6762 26.6094M43.5651 28.8468C43.5651 28.7479 43.5118 28.6946 43.4662 28.6489C43.0857 28.2684 42.6975 27.8879 42.317 27.4998C42.1648 27.3476 42.0583 27.4161 41.9441 27.5378C41.5484 27.9412 41.1526 28.3369 40.7493 28.7327C40.5971 28.8849 40.5666 28.999 40.7341 29.1588C41.0994 29.5089 41.457 29.8666 41.8071 30.2319C41.9517 30.3765 42.0583 30.3917 42.2105 30.2395C42.6214 29.8209 43.04 29.41 43.451 28.9914C43.4966 28.9457 43.5347 28.8849 43.5651 28.8468ZM37.0583 35.2928C37.0278 35.2471 36.9898 35.1938 36.9441 35.1405C36.5788 34.7753 36.2059 34.41 35.8482 34.037C35.7036 33.8848 35.5971 33.8848 35.4449 34.037C35.0415 34.448 34.6382 34.859 34.2272 35.2547C34.0826 35.3993 34.0674 35.5058 34.2272 35.658C34.5925 36.0081 34.9502 36.3658 35.3003 36.7311C35.4525 36.8909 35.5667 36.8909 35.7265 36.7311C36.1146 36.3278 36.5179 35.932 36.9213 35.5287C36.9822 35.4678 37.0659 35.4069 37.0659 35.2851M39.6991 24.9579C39.6991 24.8438 39.6306 24.7905 39.5697 24.7372C39.212 24.3795 38.8467 24.0295 38.4966 23.6566C38.3444 23.4968 38.2303 23.4891 38.0705 23.6566C37.6823 24.0599 37.279 24.4633 36.8756 24.8514C36.693 25.0264 36.731 25.1482 36.8909 25.3004C37.2409 25.6353 37.5834 25.9777 37.9182 26.3278C38.0857 26.5028 38.1998 26.5104 38.3673 26.3278C38.7554 25.9168 39.1663 25.5287 39.5621 25.1254C39.6153 25.0721 39.661 25.0036 39.6991 24.9579ZM43.7097 24.8286C43.7097 24.7296 43.664 24.6764 43.6184 24.6307C43.2379 24.2502 42.8497 23.8697 42.4692 23.4815C42.3398 23.3522 42.2409 23.375 42.1191 23.4891C41.7082 23.9077 41.2972 24.3263 40.8711 24.7296C40.7188 24.8818 40.7341 24.9884 40.8711 25.133C41.2363 25.483 41.594 25.8407 41.9441 26.206C42.1039 26.3735 42.2181 26.3506 42.3703 26.1908C42.7584 25.7875 43.1694 25.3917 43.5651 24.9884C43.6184 24.9351 43.664 24.8666 43.7021 24.8209M47.7203 24.6155C47.6823 24.5622 47.6366 24.5013 47.5834 24.4404C47.2257 24.0827 46.8604 23.7251 46.5103 23.3674C46.3657 23.2152 46.2592 23.2076 46.107 23.3674C45.7036 23.7783 45.3003 24.1893 44.8893 24.585C44.7143 24.7525 44.7523 24.8666 44.9045 25.0112C45.2622 25.3537 45.6123 25.7037 45.9547 26.0614C46.107 26.2212 46.2211 26.2289 46.3809 26.0614C46.7691 25.6505 47.18 25.2623 47.5757 24.859C47.6366 24.7981 47.7203 24.7372 47.7203 24.6155ZM42.2561 22.3172C42.3627 22.3172 42.4083 22.2639 42.454 22.2182C42.8802 21.7996 43.2987 21.3659 43.7249 20.9473C43.8695 20.8103 43.8467 20.7038 43.7173 20.5744C43.3444 20.2167 42.9791 19.8514 42.6214 19.4785C42.4692 19.3187 42.3627 19.3491 42.2181 19.4937C41.8147 19.9047 41.4114 20.3156 41.0004 20.7114C40.8482 20.8636 40.8634 20.9701 41.008 21.1147C41.3733 21.4648 41.7234 21.8301 42.0887 22.1878C42.142 22.241 42.2105 22.2867 42.2561 22.3248M41.7615 22.8879C41.7615 22.789 41.7082 22.7357 41.6625 22.6901C41.282 22.3095 40.8939 21.929 40.5134 21.5409C40.3612 21.3887 40.2546 21.4648 40.1405 21.579C39.7447 21.9823 39.349 22.378 38.9456 22.7738C38.7934 22.926 38.763 23.0401 38.9304 23.1999C39.2957 23.55 39.6534 23.9077 40.0035 24.273C40.1481 24.4176 40.2546 24.4328 40.4068 24.2806C40.8178 23.862 41.2363 23.4511 41.6473 23.0325C41.693 22.9869 41.731 22.926 41.7539 22.8879M45.7721 22.6977C45.7417 22.6596 45.7112 22.5987 45.6656 22.5531C45.2927 22.1802 44.9121 21.8073 44.5468 21.4267C44.4099 21.2898 44.3033 21.2898 44.1739 21.4267C43.763 21.8453 43.3444 22.2639 42.9258 22.6748C42.7889 22.8042 42.7812 22.9184 42.9258 23.0477C43.2987 23.4054 43.664 23.7783 44.0217 24.1436C44.1663 24.2958 44.2805 24.2958 44.4251 24.1436C44.8284 23.7327 45.2394 23.3293 45.6427 22.9184C45.696 22.8651 45.7645 22.8118 45.7797 22.6977M46.1374 27.2639C46.1374 27.2639 46.0537 27.3095 46.0156 27.3476C45.5742 27.789 45.1328 28.2228 44.699 28.6642C44.5544 28.8088 44.6458 28.9077 44.7523 29.0142C45.11 29.3719 45.4753 29.722 45.8254 30.0949C45.9852 30.2623 46.0993 30.2471 46.2516 30.0873C46.6397 29.6839 47.043 29.2806 47.4464 28.8925C47.6138 28.7327 47.6062 28.6185 47.4464 28.4663C47.0811 28.1162 46.731 27.7509 46.3657 27.3932C46.3124 27.34 46.2592 27.2715 46.145 27.2715M41.6245 26.9214C41.6245 26.8225 41.5788 26.7692 41.5332 26.7235C41.1526 26.343 40.7645 25.9625 40.384 25.5744C40.2546 25.445 40.1557 25.4602 40.0339 25.582C39.623 26.0005 39.212 26.4191 38.7858 26.8225C38.6336 26.9747 38.6488 27.0812 38.7858 27.2258C39.1511 27.5759 39.5088 27.9336 39.8589 28.2989C40.0187 28.4663 40.1329 28.4435 40.2851 28.2836C40.6808 27.8803 41.0841 27.4846 41.4799 27.0812C41.5332 27.0279 41.5788 26.9594 41.6169 26.9138M37.8878 31.7007C37.7889 31.7007 37.7356 31.7463 37.6899 31.792C37.2181 32.2638 36.7463 32.7357 36.2668 33.2075C36.1222 33.3521 36.1603 33.4587 36.2896 33.5804C36.6549 33.9381 37.0126 34.2882 37.3627 34.6611C37.5225 34.8285 37.6367 34.8133 37.7889 34.6535C38.2303 34.1969 38.6793 33.7479 39.1359 33.3065C39.2881 33.1619 39.2881 33.0477 39.1359 32.9031C38.763 32.5454 38.3977 32.1725 38.0324 31.8072C37.9867 31.7616 37.9259 31.7235 37.8878 31.6931M43.4205 32.7966C43.4205 32.7966 43.3749 32.7129 43.3292 32.6748C42.9411 32.2791 42.5453 31.8909 42.1572 31.5028C41.9974 31.343 41.8908 31.4571 41.7843 31.5713C41.3429 32.0127 40.9091 32.4541 40.4601 32.8879C40.3079 33.0401 40.2698 33.1543 40.4449 33.3141C40.8102 33.6641 41.1679 34.0218 41.5179 34.3871C41.6854 34.5622 41.7995 34.5165 41.9441 34.3719C42.3779 33.9229 42.8193 33.4891 43.2607 33.0477C43.3216 32.9868 43.4053 32.9259 43.4129 32.8042M41.4723 30.8712C41.4723 30.8712 41.4266 30.7874 41.3886 30.7494C41.0004 30.3537 40.6047 29.9655 40.2166 29.5774C40.0796 29.4404 39.9806 29.5013 39.8665 29.6078C39.4099 30.0645 38.9609 30.5287 38.4966 30.9777C38.3444 31.1223 38.3444 31.2365 38.4966 31.381C38.8619 31.7311 39.2196 32.0888 39.5697 32.4541C39.7067 32.5987 39.8208 32.6291 39.973 32.4693C40.422 32.0051 40.8863 31.5561 41.3353 31.0995C41.3886 31.0462 41.457 30.9929 41.4647 30.8788M35.3688 29.2197C35.3688 29.2197 35.3383 29.1512 35.3079 29.1208C34.9046 28.7098 34.4936 28.3065 34.0903 27.8955C33.9609 27.7661 33.8619 27.8575 33.7706 27.9488C33.314 28.4054 32.8574 28.862 32.4008 29.3186C32.2486 29.4632 32.2486 29.5774 32.4008 29.722C32.7661 30.0721 33.1237 30.4298 33.4738 30.7951C33.6336 30.9625 33.7478 30.9473 33.9 30.7874C34.3414 30.3308 34.7904 29.8894 35.2394 29.4404C35.2927 29.3871 35.3612 29.3339 35.3688 29.2197ZM39.5316 36.7463C39.5697 36.7159 39.6306 36.6778 39.6838 36.6322C40.1481 36.1679 40.6123 35.7037 41.0765 35.2395C41.2211 35.1025 41.2059 34.9959 41.0689 34.8666C40.696 34.5013 40.3307 34.136 39.9654 33.7631C39.8132 33.6033 39.7067 33.6413 39.5621 33.7783C39.1207 34.2349 38.6717 34.6839 38.2151 35.1253C38.0476 35.2851 38.0628 35.3993 38.2227 35.5515C38.5803 35.894 38.9228 36.2517 39.2805 36.6017C39.3414 36.6626 39.4023 36.7463 39.524 36.7463M37.5834 27.0051C37.5834 27.0051 37.553 26.9366 37.5225 26.9062C37.1192 26.4952 36.7082 26.0919 36.3049 25.6809C36.1755 25.5515 36.0765 25.6353 35.9852 25.7342C35.5286 26.1908 35.0796 26.6474 34.6154 27.104C34.4708 27.2486 34.4632 27.3552 34.6154 27.5074C34.9807 27.8575 35.3383 28.2152 35.6884 28.5804C35.8482 28.7479 35.9624 28.7327 36.1146 28.5804C36.556 28.1238 37.0126 27.6824 37.454 27.2334C37.5073 27.1801 37.5758 27.1269 37.5834 27.0203M35.9015 29.76C35.8406 29.8057 35.7721 29.8362 35.7265 29.8818C35.2546 30.3537 34.7828 30.8255 34.3033 31.2973C34.1511 31.4495 34.212 31.5485 34.3338 31.6702C34.6991 32.0279 35.0568 32.378 35.4068 32.7433C35.5438 32.8879 35.658 32.9031 35.8102 32.7509C36.2592 32.2867 36.7158 31.8301 37.18 31.381C37.3323 31.2288 37.317 31.1223 37.18 30.9777C36.8148 30.6276 36.4647 30.2623 36.0994 29.9046C36.0461 29.8514 35.9776 29.8057 35.9015 29.7524M38.1237 27.5378C38.0705 27.5683 38.0172 27.5911 37.9791 27.6292C37.4845 28.1162 36.9974 28.6033 36.5103 29.0903C36.3886 29.2121 36.4266 29.311 36.5332 29.41C36.9061 29.7829 37.2866 30.1558 37.6595 30.5363C37.7965 30.6733 37.903 30.6657 38.0324 30.5363C38.4814 30.0797 38.938 29.6155 39.4023 29.1664C39.5469 29.0218 39.5621 28.9153 39.4023 28.7631C39.0294 28.4054 38.6641 28.0325 38.2988 27.6672C38.2531 27.6215 38.1922 27.5835 38.1237 27.5302M50.3383 26.7464C50.4068 29.5013 49.5316 31.8605 47.3703 33.6641C46.1374 34.6915 44.7751 35.5135 43.352 36.2288C41.1907 37.3247 38.9533 38.1923 36.556 38.6261C35.384 38.8392 34.2044 38.9305 33.0172 38.6793C31.4266 38.3369 30.5438 37.3247 30.2623 35.7646C29.9807 34.1969 30.2166 32.6596 30.6047 31.1451C31.4647 27.8118 32.8726 24.7372 34.9959 22.0051C36.6169 19.9199 38.7934 18.8392 41.4266 18.6718C43.8391 18.5196 45.9928 19.1817 47.8193 20.7875C48.6945 21.5561 49.2424 22.5683 49.6686 23.6337C50.0643 24.6231 50.3079 25.6581 50.3307 26.7311" fill="#F6851D"/>
</svg>
