<svg width="70" height="70" viewBox="0 0 70 70" fill="none" xmlns="http://www.w3.org/2000/svg">
<circle cx="35" cy="35" r="31" stroke="#F6851D" stroke-width="2"/>
<path d="M27.0166 41.9862C26.5403 41.9778 26.1309 42.3789 26.1225 42.8552C26.1141 43.3315 26.5069 43.7327 27.0083 43.7327C27.4763 43.7327 27.869 43.3566 27.8857 42.8887C27.9024 42.4207 27.5013 41.9945 27.025 41.9862M49.2783 41.9862C48.802 41.9862 48.3925 42.404 48.4009 42.8803C48.4009 43.365 48.8104 43.7494 49.3034 43.741C49.7713 43.741 50.1558 43.3483 50.1641 42.8803C50.1641 42.404 49.7546 41.9862 49.2867 41.9945M44.5987 42.8887C44.6154 42.4207 44.1976 41.9945 43.7296 41.9945C43.2533 41.9945 42.8438 42.3956 42.8438 42.8719C42.8438 43.3399 43.2115 43.7159 43.6962 43.741C44.1809 43.7661 44.5903 43.3733 44.607 42.8887M38.1726 43.741C38.6405 43.741 39.0249 43.3483 39.0333 42.8803C39.0416 42.4123 38.6238 41.9862 38.1558 41.9862C37.6795 41.9862 37.2701 42.3956 37.2701 42.8719C37.2701 43.3566 37.6712 43.741 38.1726 43.7327M32.6155 43.7327C33.0835 43.7243 33.4679 43.3315 33.4679 42.8636C33.4679 42.3873 33.05 41.9778 32.5821 41.9862C32.1057 41.9945 31.6963 42.4123 31.713 42.8803C31.7213 43.365 32.1308 43.7494 32.6238 43.7327M22.337 42.8636C22.337 42.3873 21.9192 41.9778 21.4512 41.9862C20.9749 41.9945 20.5738 42.4123 20.5822 42.8887C20.5905 43.3733 21 43.7577 21.493 43.741C21.961 43.7327 22.3454 43.3399 22.3454 42.8719M38.1642 48.7215C38.7742 48.7215 39.3759 48.7215 39.9859 48.7215C40.2032 48.7215 40.3202 48.663 40.3118 48.4123C40.3035 47.7271 40.3285 47.0502 40.3035 46.365C40.2784 45.6129 39.8522 45.1365 39.1252 45.0781C38.4985 45.0279 37.8634 45.0279 37.2366 45.0781C36.4762 45.1365 36.0584 45.6296 36.0416 46.4318C36.0249 47.0752 36.0416 47.7187 36.0416 48.3621C36.0416 48.6296 36.1336 48.7298 36.401 48.7215C36.9943 48.7048 37.5876 48.7215 38.1809 48.7215M32.6071 48.7215C33.2088 48.7215 33.8188 48.7215 34.4205 48.7215C34.6712 48.7215 34.7631 48.6296 34.7631 48.3872C34.7548 47.7271 34.7715 47.0752 34.7548 46.4151C34.7297 45.5711 34.2366 45.0864 33.3843 45.0697C32.8662 45.0613 32.3564 45.053 31.8383 45.0697C30.986 45.0948 30.5013 45.5794 30.4846 46.4318C30.4679 47.0752 30.4929 47.7187 30.4762 48.3621C30.4679 48.663 30.5932 48.7382 30.869 48.7298C31.4456 48.7131 32.0305 48.7298 32.6071 48.7298M27.0166 48.7298C27.635 48.7298 28.2534 48.7298 28.8718 48.7298C29.1058 48.7298 29.1977 48.6463 29.1893 48.4123C29.181 47.7271 29.206 47.0418 29.181 46.365C29.1559 45.6296 28.7464 45.1533 28.0278 45.0948C27.376 45.0446 26.7075 45.0363 26.0556 45.0948C25.3286 45.1616 24.9275 45.6463 24.9108 46.4067C24.8941 47.0669 24.9108 47.7187 24.9025 48.3789C24.9025 48.6546 25.0111 48.7298 25.2701 48.7298C25.8467 48.7131 26.4317 48.7298 27.0083 48.7298M21.4512 48.7298C22.0529 48.7298 22.6629 48.7298 23.2646 48.7298C23.5069 48.7298 23.6156 48.663 23.6156 48.4039C23.5988 47.7354 23.6239 47.0669 23.6072 46.39C23.5821 45.6463 23.1894 45.1783 22.4791 45.0948C21.8189 45.0196 21.142 45.0196 20.4735 45.0948C19.7549 45.1783 19.3621 45.6379 19.3454 46.3817C19.3287 47.0502 19.3454 47.7187 19.337 48.3956C19.337 48.6463 19.429 48.7382 19.6797 48.7298C20.273 48.7215 20.8663 48.7298 21.4596 48.7298M49.3117 48.7298C49.9134 48.7298 50.5234 48.7298 51.1251 48.7298C51.3424 48.7298 51.4677 48.6797 51.4594 48.429C51.451 47.7354 51.4761 47.0335 51.4426 46.3399C51.4092 45.5711 50.9329 45.1031 50.1557 45.0697C49.6042 45.0446 49.0443 45.0446 48.4928 45.0697C47.6655 45.1031 47.1976 45.5878 47.1725 46.4234C47.1558 47.0669 47.1808 47.7103 47.1641 48.3538C47.1558 48.6546 47.2811 48.7298 47.5569 48.7215C48.1335 48.7048 48.7184 48.7215 49.295 48.7215M43.738 48.7215C44.348 48.7215 44.9497 48.7215 45.5597 48.7215C45.7853 48.7215 45.8856 48.6463 45.8856 48.4039C45.8772 47.7187 45.9023 47.0418 45.8772 46.3566C45.8522 45.6379 45.4594 45.17 44.7658 45.0864C44.0889 45.0028 43.3954 45.0028 42.7185 45.0864C42.0249 45.17 41.6321 45.6296 41.6071 46.3566C41.582 47.0418 41.6071 47.7187 41.5987 48.4039C41.5987 48.6463 41.699 48.7215 41.9246 48.7131C42.5346 48.7131 43.1363 48.7131 43.738 48.7131M35.3648 50H18.9025C18.1588 50 18 49.8412 18 49.0892C18 48.1449 18 47.209 18 46.2647C18 45.312 18.4178 44.6101 19.2033 44.1171C19.4206 43.9834 19.4624 43.8747 19.3788 43.6324C18.9276 42.4123 19.5627 41.1338 20.7744 40.7578C21.9944 40.3817 23.2562 41.0837 23.5654 42.3288C23.6741 42.7717 23.6741 43.2313 23.4735 43.6491C23.3649 43.8747 23.415 44.0084 23.6406 44.1003C23.6741 44.1171 23.7158 44.1338 23.7409 44.1588C24.0668 44.5516 24.3509 44.4764 24.7186 44.1588C24.9526 43.9583 25.0445 43.8664 24.9275 43.5488C24.5849 42.6547 24.9275 41.6352 25.688 41.0669C26.4818 40.4903 27.5347 40.4903 28.3203 41.0669C29.0807 41.6268 29.4066 42.6463 29.0723 43.5488C28.9804 43.7995 28.947 43.9416 29.2311 44.1003C29.8746 44.468 29.8495 44.4764 30.4679 44.0168C30.6768 43.858 30.5431 43.7243 30.4929 43.5822C30.0668 42.3705 30.7102 41.0669 31.9386 40.7243C32.7659 40.4903 33.5347 40.6658 34.1447 41.2926C34.7631 41.9277 34.9219 42.7048 34.6378 43.5488C34.5458 43.8329 34.5291 44.0001 34.83 44.1171C35.0305 44.1923 35.1642 44.5182 35.3564 44.4597C35.6155 44.3845 35.8244 44.1588 36.0584 44.0001C36.2589 43.8664 36.1001 43.7243 36.0584 43.5906C35.6322 42.3789 36.2756 41.0753 37.4957 40.7327C38.323 40.4987 39.0918 40.6658 39.7018 41.2926C40.3202 41.9277 40.4789 42.7048 40.2032 43.5405C40.1113 43.8162 40.0862 43.9917 40.387 44.1171C40.5876 44.1923 40.7296 44.5098 40.9135 44.4597C41.1725 44.3928 41.3814 44.1588 41.6154 44.0001C41.816 43.8664 41.6656 43.7243 41.6154 43.5906C41.1976 42.404 41.7993 41.1171 42.9775 40.7494C43.8299 40.482 44.6238 40.6408 45.2588 41.2842C45.8939 41.9277 46.0527 42.7215 45.7519 43.5655C45.6516 43.8496 45.7352 43.9332 45.9357 44.1171C46.3368 44.4931 46.6293 44.4597 47.0221 44.1087C47.2143 43.9332 47.2978 43.858 47.1976 43.5906C46.7463 42.3789 47.3898 41.092 48.6098 40.7243C49.8298 40.3566 51.0917 41.0669 51.3925 42.3121C51.5011 42.7549 51.4844 43.2146 51.2922 43.6407C51.2003 43.8413 51.2421 43.9499 51.4343 44.0669C52.2699 44.5767 52.6961 45.3204 52.6794 46.3148C52.6627 47.2424 52.6794 48.17 52.6794 49.0975C52.6794 49.8078 52.5039 49.975 51.7769 49.975H35.3063" fill="#F6851D"/>
<path d="M24.2256 37.6577C23.7577 37.6494 23.3315 38.0588 23.3315 38.5352C23.3315 39.0031 23.7159 39.3959 24.1839 39.4126C24.6769 39.4293 25.0864 39.0533 25.0947 38.5602C25.1114 38.0839 24.7103 37.6661 24.2256 37.6577ZM24.2674 36.3458C25.4875 36.3458 26.4067 37.3151 26.4067 38.5602C26.4067 39.8221 25.4457 40.7413 24.1421 40.7246C22.9387 40.7162 22.0195 39.7468 22.0195 38.485C22.0195 37.2483 22.9889 36.329 24.2674 36.3374" fill="#F6851D"/>
<path d="M30.6611 38.5349C30.6611 38.0586 30.2433 37.6491 29.767 37.6575C29.2907 37.6575 28.8812 38.092 28.8979 38.56C28.9146 39.028 29.3074 39.4123 29.7753 39.4123C30.2684 39.4123 30.6695 39.0196 30.6611 38.5349ZM29.792 36.3455C31.0455 36.3455 31.9814 37.2982 31.9731 38.56C31.9731 39.8051 31.0205 40.7327 29.7503 40.7327C28.5219 40.7327 27.5859 39.78 27.5859 38.5433C27.5859 37.2898 28.5302 36.3539 29.792 36.3539" fill="#F6851D"/>
<path d="M35.3387 39.4042C35.8317 39.4042 36.2328 39.0198 36.2328 38.5351C36.2328 38.0588 35.8234 37.6493 35.3471 37.6493C34.8707 37.6493 34.4613 38.0755 34.4696 38.5435C34.478 39.0114 34.8707 39.3958 35.3387 39.3958M37.5448 38.5017C37.5448 39.7635 36.6172 40.7078 35.3638 40.7161C34.1019 40.7161 33.166 39.7802 33.166 38.5267C33.166 37.2733 34.1103 36.3373 35.3721 36.3373C36.6089 36.3373 37.5532 37.2816 37.5532 38.51" fill="#F6851D"/>
<path d="M41.7998 38.56C41.8082 38.0837 41.407 37.6658 40.9307 37.6575C40.4628 37.6491 40.0366 38.0586 40.0366 38.5349C40.0366 39.0029 40.421 39.3956 40.8889 39.4123C41.382 39.4291 41.7914 39.0447 41.7998 38.56ZM43.1118 38.5266C43.1118 39.7884 42.1758 40.7327 40.9224 40.7327C39.6689 40.7327 38.7246 39.7967 38.7246 38.5349C38.7246 37.2814 39.6689 36.3455 40.9307 36.3455C42.1675 36.3455 43.1034 37.2898 43.1034 38.5266" fill="#F6851D"/>
<path d="M47.3721 38.5513C47.3888 38.0833 46.9793 37.6571 46.503 37.6488C46.0267 37.6488 45.6172 38.0499 45.6088 38.5262C45.6088 38.9941 45.9765 39.3702 46.4612 39.3953C46.9459 39.4203 47.3553 39.0359 47.3721 38.5429M48.684 38.5095C48.684 39.7713 47.7481 40.7156 46.4946 40.7156C45.2412 40.7156 44.2969 39.7797 44.2969 38.5178C44.2969 37.2644 45.2412 36.3284 46.503 36.3284C47.7397 36.3284 48.684 37.2727 48.684 38.5011" fill="#F6851D"/>
<path d="M27.0088 35.0835C27.4852 35.0752 27.8946 34.6574 27.8779 34.181C27.8696 33.7047 27.435 33.2953 26.9671 33.3203C26.5075 33.3454 26.1147 33.7465 26.1147 34.2061C26.1147 34.6824 26.5325 35.0919 27.0088 35.0835ZM26.9838 32.0084C28.2456 32.0084 29.1899 32.9443 29.1899 34.1894C29.1899 35.4262 28.254 36.3872 27.0339 36.3872C25.747 36.3872 24.8027 35.4596 24.8027 34.181C24.8027 32.9526 25.747 32 26.9754 32" fill="#F6851D"/>
<path d="M32.5748 35.0832C33.0511 35.0749 33.4605 34.6571 33.4438 34.1807C33.4355 33.7044 33.0009 33.295 32.533 33.32C32.0734 33.3367 31.6806 33.7462 31.6806 34.2058C31.6806 34.6821 32.0984 35.0916 32.5748 35.0832ZM34.7558 34.2225C34.7558 35.4509 33.8032 36.3952 32.5748 36.3952C31.3464 36.3952 30.3686 35.4509 30.377 34.164C30.377 32.944 31.338 32.0081 32.5831 32.0164C33.8366 32.0164 34.7642 32.9691 34.7642 34.2309" fill="#F6851D"/>
<path d="M39.0166 34.1899C39.0083 33.7136 38.5738 33.3041 38.1058 33.3208C37.6462 33.3375 37.2534 33.747 37.2534 34.2066C37.2534 34.6829 37.6713 35.0924 38.1392 35.084C38.6155 35.084 39.025 34.6579 39.0083 34.1899M38.1476 32.0172C39.3927 32.0172 40.3203 32.9699 40.3203 34.24C40.3203 35.4684 39.3676 36.4044 38.1309 36.4044C36.8607 36.4044 35.9331 35.4517 35.9415 34.1648C35.9415 32.9448 36.9108 32.0172 38.1559 32.0256" fill="#F6851D"/>
<path d="M43.7045 33.32C43.2365 33.32 42.8187 33.7462 42.8271 34.2142C42.8271 34.6738 43.2282 35.0749 43.6878 35.0832C44.1641 35.0916 44.5819 34.6905 44.5903 34.2142C44.5986 33.7462 44.1892 33.32 43.7128 33.32M43.7128 36.3952C42.4594 36.3952 41.5234 35.4509 41.5234 34.1891C41.5234 32.944 42.4761 32.0081 43.7379 32.0164C44.983 32.0164 45.9106 32.9774 45.9022 34.2392C45.9022 35.4593 44.9412 36.3952 43.7045 36.3952" fill="#F6851D"/>
<path fill-rule="evenodd" clip-rule="evenodd" d="M45.0447 29C44.5209 27.5492 43.6817 26.2162 42.5701 25.1047C40.5822 23.1168 37.8861 22 35.0748 22C32.2635 22 29.5673 23.1168 27.5795 25.1047C26.4679 26.2162 25.6287 27.5492 25.1048 29H23C23.5926 27.0126 24.6722 25.1835 26.1652 23.6905C28.5282 21.3275 31.7331 20 35.0748 20C38.4165 20 41.6214 21.3275 43.9843 23.6905C45.4774 25.1835 46.557 27.0126 47.1496 29H45.0447Z" fill="#F6851D"/>
</svg>
