<svg width="70" height="70" viewBox="0 0 70 70" fill="none" xmlns="http://www.w3.org/2000/svg">
<circle cx="35" cy="35" r="31" stroke="#F6851D" stroke-width="2"/>
<path d="M48.4783 45.4179C47.9902 45.4179 47.507 45.4971 47.0478 45.6502C46.5746 44.3768 45.7562 43.2379 44.6866 42.382C43.3593 41.3199 41.6902 40.7349 39.9871 40.7349C38.4366 40.7349 36.9239 41.2166 35.6629 42.1014C34.4151 41.155 32.8649 40.6043 31.2082 40.6043C28.1876 40.6043 25.5055 42.4295 24.3837 45.1959C23.3355 45.3445 22.3696 45.8342 21.6224 46.605C20.9288 47.3203 20.4843 48.2171 20.3315 49.1845H16.7551C16.3381 49.1845 16 49.5226 16 49.9396C16 50.3566 16.3381 50.6947 16.7551 50.6947H52.2445H52.2449C52.6619 50.6947 53 50.3566 53 49.9396C53 47.4463 50.9716 45.4179 48.4783 45.4179ZM21.8685 49.1844C22.1977 47.7685 23.4343 46.7106 24.9526 46.66C25.2693 46.6495 25.5457 46.4423 25.6447 46.1412C26.4365 43.7328 28.6724 42.1145 31.2082 42.1145C32.6835 42.1145 34.0523 42.6635 35.096 43.5887C35.1248 43.6188 35.1553 43.6463 35.1878 43.6708C35.9973 44.4192 36.5995 45.3997 36.8853 46.5283C36.9734 46.8762 37.2951 47.1122 37.6526 47.0972C37.6978 47.0951 37.743 47.0932 37.7887 47.0932C39.0968 47.0932 40.2008 47.9804 40.5327 49.1844H21.8685ZM42.0786 49.1845V49.1844C41.7422 47.2683 40.1505 45.7789 38.185 45.6008C37.8765 44.6888 37.3988 43.8662 36.7936 43.1633C37.7455 42.5675 38.8536 42.2451 39.987 42.2451C42.7866 42.2451 45.1939 44.1445 45.841 46.8641C45.8964 47.0969 46.0591 47.2898 46.2793 47.3838C46.4995 47.4776 46.7512 47.4617 46.9577 47.3405C47.4176 47.0707 47.9434 46.9281 48.4783 46.9281C49.8781 46.9281 51.0581 47.8883 51.3939 49.1845H42.0786Z" fill="#F6851D"/>
<path d="M21.3107 26.2548C20.4038 26.2548 19.5892 26.6554 19.0329 27.2884C18.4766 26.6553 17.662 26.2548 16.7551 26.2548C16.3381 26.2548 16 26.5929 16 27.0099C16 27.4269 16.3381 27.765 16.7551 27.765C17.5947 27.765 18.2778 28.4481 18.2778 29.2877C18.2778 29.7047 18.6159 30.0428 19.0329 30.0428C19.4499 30.0428 19.788 29.7047 19.788 29.2877C19.788 28.4481 20.4711 27.765 21.3107 27.765C21.7277 27.765 22.0658 27.4268 22.0658 27.0099C22.0658 26.5928 21.7277 26.2548 21.3107 26.2548Z" fill="#F6851D"/>
<path d="M52.9988 24.7572C52.9988 22.1342 50.8647 20.0001 48.2417 20.0001C46.1463 20.0001 44.3389 21.3498 43.7156 23.292C41.9008 23.3131 40.2376 24.3579 39.4122 25.9541C37.1161 26.0178 35.2676 27.915 35.2676 30.2379C35.2676 30.655 35.6056 30.993 36.0227 30.993H51.5204C51.9374 30.993 52.2755 30.655 52.2755 30.2379C52.2755 29.4382 52.0564 28.689 51.6754 28.0477C52.5229 27.1679 52.9988 26.0034 52.9988 24.7572ZM36.8813 29.4829C37.2084 28.3183 38.2725 27.4627 39.5312 27.4627C39.6222 27.4627 39.7183 27.4677 39.817 27.4777C40.1568 27.5121 40.4771 27.314 40.5985 26.9949C41.0976 25.6828 42.3727 24.8012 43.7715 24.8012C45.1703 24.8012 46.4456 25.6827 46.9445 26.9948C47.0657 27.314 47.3865 27.5121 47.7261 27.4777C47.8247 27.4677 47.9208 27.4627 48.0115 27.4627C49.2704 27.4627 50.3347 28.3183 50.6617 29.4829H36.8813ZM50.6805 26.8995C49.9781 26.3312 49.0943 25.9809 48.1308 25.9541C47.5263 24.785 46.4724 23.9119 45.2386 23.5197C45.7282 22.3228 46.8982 21.5103 48.2417 21.5103C50.032 21.5103 51.4886 22.9669 51.4886 24.7572C51.4886 25.5596 51.1991 26.3124 50.6805 26.8995Z" fill="#F6851D"/>
</svg>
