<svg width="70" height="70" viewBox="0 0 70 70" fill="none" xmlns="http://www.w3.org/2000/svg">
<circle cx="35" cy="35" r="31" stroke="#F6851D" stroke-width="2"/>
<path fill-rule="evenodd" clip-rule="evenodd" d="M30.273 21.4458C30.273 19.9719 31.4698 18.7777 32.9454 18.7777C34.421 18.7777 35.6179 19.9719 35.6179 21.4458C35.6179 22.9197 34.421 24.1139 32.9454 24.1139C31.4698 24.1139 30.273 22.9197 30.273 21.4458ZM32.9454 17C30.4852 17 28.4914 18.9908 28.4914 21.4458C28.4914 21.9112 28.5631 22.36 28.696 22.7818H28.1645C27.7531 22.7818 27.2966 22.9477 26.9013 23.1546C26.4784 23.376 26.0212 23.6989 25.5978 24.1211C24.7463 24.9698 24 26.2549 24 27.9462C24 30.0272 24.6916 31.5473 25.547 32.5575C25.9701 33.0573 26.4319 33.4304 26.8653 33.6835C26.9964 33.76 27.1336 33.8307 27.2738 33.8912V50.6583C27.2738 51.9482 28.3278 53 29.6206 53L29.6239 52.9999H29.6345L29.6377 53C30.9305 53 31.9846 51.9482 31.9846 50.6583V41.1904H33.9888V50.6583C33.9888 51.9482 35.0429 53 36.3357 53L36.339 52.9999H36.3496L36.3528 53C37.6456 53 38.6997 51.9482 38.6997 50.6583V34.0058L38.9145 34.6198C39.2163 35.4832 39.9983 36.0428 40.8576 36.1047C40.1332 36.5818 39.6552 37.4012 39.6552 38.332V38.9245C39.6552 39.4154 40.054 39.8134 40.546 39.8134C41.038 39.8134 41.4368 39.4154 41.4368 38.9245V38.332C41.4368 37.8411 41.8356 37.4431 42.3276 37.4431C42.8196 37.4431 43.2184 37.8411 43.2184 38.332V50.7756C43.2184 51.2665 43.6172 51.6644 44.1092 51.6644C44.6012 51.6644 45 51.2665 45 50.7756V38.332C45 36.8681 43.8178 35.6798 42.3541 35.6656C43.1094 35.1003 43.4473 34.0927 43.1198 33.1558L40.222 24.8687C39.7851 23.6195 38.6042 22.7827 37.2782 22.7827H37.1946C37.3277 22.3606 37.3995 21.9116 37.3995 21.4458C37.3995 18.9908 35.4057 17 32.9454 17ZM28.1645 24.5594H29.7662C30.5744 25.3815 31.7002 25.8915 32.9454 25.8915C34.1902 25.8915 35.3157 25.3819 36.1238 24.5603H37.2782C37.8465 24.5603 38.3525 24.919 38.5398 25.4543L41.4376 33.7414C41.5187 33.9731 41.3961 34.2265 41.1638 34.3074C40.9316 34.3883 40.6776 34.2659 40.5965 34.0342L38.65 28.4674L36.9181 28.7602V50.6583C36.9181 50.9664 36.6617 51.2223 36.3528 51.2223L36.3496 51.2222H36.339L36.3357 51.2223C36.0269 51.2223 35.7704 50.9664 35.7704 50.6583V40.3016V39.4128H34.8796H31.0938H30.203V40.3016V50.6583C30.203 50.9664 29.9467 51.2223 29.6377 51.2223L29.6345 51.2222H29.6239L29.6206 51.2223C29.3118 51.2223 29.0553 50.9664 29.0553 50.6583V33.2125V32.3236H29.0528V27.666H27.2712V31.7848C27.151 31.6772 27.0284 31.5527 26.9078 31.4103C26.3265 30.7237 25.7816 29.6107 25.7816 27.9462C25.7816 26.8148 26.2718 25.962 26.857 25.3787C27.1519 25.0847 27.4631 24.8679 27.729 24.7287C27.9842 24.5952 28.1331 24.5659 28.1605 24.5605C28.1646 24.5597 28.1645 24.5594 28.1645 24.5594Z" fill="#F6851D"/>
</svg>
