<svg width="70" height="70" viewBox="0 0 70 70" fill="none" xmlns="http://www.w3.org/2000/svg">
<circle cx="35" cy="35" r="31" stroke="#F6851D" stroke-width="2"/>
<path d="M42.4726 29.6355C42.7537 29.3526 43.2096 29.3526 43.4907 29.6355L43.6532 29.7993C43.9344 30.0823 43.9344 30.5413 43.6532 30.8245C43.5126 30.966 43.3284 31.0368 43.1441 31.0368C42.9598 31.0368 42.7756 30.966 42.635 30.8245L42.4725 30.6609C42.1914 30.3777 42.1914 29.9188 42.4726 29.6355ZM18.667 42.8976C18.0598 43.2492 17.2478 43.4398 16.4301 43.4398C15.3485 43.4398 14.2568 43.1065 13.6145 42.3715C13.1116 41.7964 12.903 40.9791 13.0422 40.1292C13.2023 39.1517 13.7857 38.2855 14.6028 37.8123C16.0674 36.9643 18.4827 37.342 19.573 38.5894V38.5895C20.0858 39.1763 20.3053 39.9669 20.1753 40.7587C20.0297 41.6475 19.4799 42.4271 18.667 42.8976ZM18.7549 40.5224C18.8149 40.1562 18.7217 39.8099 18.4922 39.5473C18.1058 39.1053 17.2608 38.8017 16.46 38.8017C16.045 38.8017 15.642 38.8832 15.3206 39.0692C14.8808 39.324 14.5521 39.8206 14.463 40.3653C14.3944 40.7842 14.479 41.1661 14.6953 41.4137C15.2793 42.082 16.9824 42.2007 17.9494 41.6407C18.3862 41.3878 18.6798 40.9802 18.7549 40.5224ZM14.0948 36.6347C14.114 36.6347 14.1332 36.634 14.1527 36.6324C14.5491 36.6006 14.8447 36.2514 14.8133 35.8522C14.7778 35.4032 14.7598 34.9482 14.7598 34.5001C14.7598 25.0987 22.3553 17.4501 31.6914 17.4501C32.3458 17.4501 33.0059 17.4886 33.6533 17.5647C34.0485 17.611 34.4056 17.3263 34.4518 16.9286C34.4979 16.5309 34.2151 16.1709 33.8202 16.1244C33.1176 16.0418 32.4014 16 31.6914 16C26.8037 16 22.1955 17.9298 18.7158 21.4337C15.2363 24.9378 13.3199 29.5782 13.3199 34.5001C13.3199 34.9864 13.3394 35.4801 13.3779 35.9673C13.4079 36.3468 13.7231 36.6347 14.0948 36.6347ZM43.8244 20.637C43.5263 20.372 43.0713 20.4004 42.8082 20.7007C42.545 21.0008 42.5734 21.459 42.8715 21.724C46.5268 24.9735 48.6232 29.6303 48.6232 34.5001C48.6232 43.9014 41.0277 51.55 31.6916 51.55C26.327 51.55 21.2168 48.9248 18.0219 44.5275C17.7871 44.2044 17.3366 44.1339 17.0157 44.3705C16.6948 44.6069 16.625 45.0605 16.8598 45.3837C20.3248 50.1527 25.8694 52.9999 31.6916 52.9999C36.5793 52.9999 41.1875 51.0701 44.6672 47.5662C48.1469 44.0622 50.0632 39.4218 50.0632 34.4999C50.063 29.2145 47.7891 24.1616 43.8244 20.637ZM56 50.9671C56 52.0882 55.0945 53 53.9816 53H51.3837C50.2707 53 49.3652 52.0882 49.3652 50.9674C49.3652 49.8462 50.2707 48.9344 51.3837 48.9344H51.9625V21.8588H50.085C49.8941 21.8588 49.711 21.7824 49.5759 21.6464C49.4409 21.5104 49.3651 21.326 49.3651 21.1337L49.3653 18.2339C49.3653 17.8336 49.6876 17.509 50.0852 17.509C50.4828 17.509 50.8052 17.8337 50.8052 18.2341L50.805 20.4088H51.9624V18.234C51.9624 17.8336 52.2848 17.509 52.6824 17.509C53.08 17.509 53.4023 17.8336 53.4023 18.234V20.4088H54.5599V18.234C54.5599 17.8336 54.8822 17.509 55.2798 17.509C55.6775 17.509 55.9998 17.8336 55.9998 18.234L55.9999 21.1338C55.9999 21.326 55.9241 21.5105 55.7891 21.6464C55.654 21.7823 55.4709 21.8588 55.28 21.8588H53.4023V48.9345H53.9815C55.0946 48.9344 56 49.8462 56 50.9671ZM54.5601 50.9674C54.5601 50.6458 54.3006 50.3844 53.9816 50.3844H51.3837C51.0647 50.3844 50.8051 50.6457 50.8051 50.9671C50.8051 51.2886 51.0647 51.55 51.3837 51.55H53.9816C54.3006 51.55 54.5601 51.2887 54.5601 50.9674ZM35.175 20.2412C34.8698 19.3297 34.9311 18.3305 35.3348 17.6333C36.1555 16.2165 38.1888 16.1144 39.685 16.7376C40.7422 17.1778 41.5435 17.9483 41.8285 18.7989C42.024 19.3823 41.9684 19.965 41.6679 20.484C41.089 21.4836 39.4472 22.3214 37.9795 22.3214C37.5638 22.3214 37.1622 22.2543 36.8025 22.1044C36.0613 21.7956 35.468 21.1165 35.175 20.2412ZM36.5394 19.7781C36.6996 20.2564 36.9961 20.616 37.353 20.7647C38.2617 21.1427 40.0119 20.4653 40.4242 19.7535C40.5125 19.6008 40.5253 19.4449 40.4642 19.2625C40.3171 18.8236 39.7829 18.3474 39.1348 18.0776C38.7182 17.904 38.2812 17.8206 37.8849 17.8206C37.2885 17.8206 36.7841 18.0094 36.5788 18.364C36.3843 18.6994 36.3686 19.2677 36.5394 19.7781ZM26.3115 46.8166C25.9139 46.8166 25.5916 47.1412 25.5916 47.5416C25.5916 47.942 25.9139 48.2666 26.3115 48.2666H26.5412C26.9388 48.2666 27.2612 47.942 27.2612 47.5416C27.2612 47.1412 26.9388 46.8166 26.5412 46.8166H26.3115ZM42.0544 24.0646C42.27 24.2817 42.3265 24.6118 42.1953 24.889C41.0515 27.3068 39.6284 29.651 37.9456 31.8922C40.7167 32.281 43.3765 32.9267 45.8678 33.8166C46.155 33.9192 46.3471 34.193 46.3471 34.4999C46.3471 34.8069 46.155 35.0806 45.8678 35.1833C43.3775 36.0727 40.7185 36.7184 37.9469 37.1074C39.6277 39.3457 41.0496 41.6886 42.1955 44.111C42.3266 44.3882 42.2702 44.7183 42.0546 44.9354C41.8392 45.1525 41.5113 45.2095 41.2359 45.0773C38.8304 43.9236 36.5035 42.4915 34.2807 40.799C33.8946 43.5891 33.2535 46.267 32.37 48.7754C32.2681 49.0648 31.9964 49.2581 31.6915 49.2581C31.3867 49.2581 31.1149 49.0648 31.013 48.7754C30.1294 46.2671 29.4883 43.5891 29.1021 40.7978C26.8763 42.4924 24.5479 43.9258 22.1471 45.0773C21.8717 45.2093 21.544 45.1526 21.3284 44.9354C21.1128 44.7183 21.0563 44.3882 21.1875 44.1111C22.3311 41.6934 23.7544 39.349 25.4373 37.1077C22.6667 36.7189 20.0069 36.0732 17.5153 35.1833C17.2281 35.0807 17.0361 34.8069 17.0361 34.4999C17.0361 34.193 17.228 33.9193 17.5153 33.8166C20.0058 32.9271 22.6647 32.2815 25.4363 31.8926C23.7556 29.6543 22.3335 27.311 21.1878 24.8889C21.0568 24.6117 21.1131 24.2816 21.3287 24.0645C21.5443 23.8474 21.8723 23.7907 22.1474 23.9227C24.5526 25.0763 26.8797 26.5085 29.1024 28.2008C29.4885 25.4101 30.1296 22.7327 31.0131 20.2247C31.115 19.9354 31.3868 19.742 31.6916 19.742C31.9965 19.742 32.2682 19.9353 32.3701 20.2247C33.2536 22.7328 33.8947 25.4109 34.2811 28.2022C36.507 26.5075 38.8351 25.0742 41.236 23.9227C41.511 23.7906 41.8388 23.8474 42.0544 24.0646ZM30.42 29.2448C30.8482 29.5974 31.2724 29.9602 31.6919 30.3326C32.1112 29.9607 32.5352 29.5984 32.9629 29.2461C32.7007 27.0311 32.2746 24.8865 31.6913 22.8423C31.1081 24.8864 30.6821 27.0302 30.42 29.2448ZM31.6915 32.5201C30.6073 32.5201 29.7252 33.4083 29.7252 34.5001C29.7252 35.5919 30.6073 36.4801 31.6915 36.4801C32.7757 36.4801 33.6578 35.5919 33.6578 34.5001C33.6578 33.4083 32.7757 32.5201 31.6915 32.5201ZM28.4782 33.3615C28.8206 32.3846 29.5908 31.609 30.5611 31.2643C28.3425 29.3219 25.9505 27.6252 23.5092 26.2605C24.8644 28.7191 26.5491 31.1273 28.4782 33.3615ZM26.4737 35.7806C26.8237 35.3496 27.1835 34.9228 27.5529 34.5004C27.1832 34.0779 26.823 33.6508 26.4728 33.2196C24.2735 33.4837 22.1444 33.9126 20.1146 34.4999C22.1453 35.0876 24.2748 35.5168 26.4737 35.7806ZM29.2413 38.8495C29.686 38.4892 30.126 38.1182 30.5615 37.7361C29.5907 37.3914 28.8202 36.6153 28.4778 35.6376C26.526 37.8931 24.8598 40.2743 23.5032 42.7453C25.4575 41.6573 27.3552 40.3716 29.1784 38.9004C29.1984 38.8824 29.2194 38.8654 29.2413 38.8495ZM32.9628 39.755C32.5347 39.4024 32.1105 39.0397 31.691 38.6673C31.2717 39.0392 30.8476 39.4016 30.4198 39.7539C30.6819 41.969 31.1079 44.1134 31.6913 46.1578C32.2747 44.1135 32.7008 41.9692 32.9628 39.755ZM34.9048 35.6385C34.5626 36.6155 33.7924 37.391 32.8221 37.7358C35.0407 39.6783 37.4323 41.3748 39.8738 42.7396C38.5187 40.2811 36.8337 37.8725 34.9048 35.6385ZM36.9091 33.2193C36.5592 33.6503 36.1993 34.0772 35.83 34.4995C36.1997 34.922 36.56 35.3492 36.9102 35.7804C39.1094 35.5162 41.2387 35.0872 43.2685 34.4999C41.238 33.9124 39.108 33.4832 36.9091 33.2193ZM39.8794 26.2547C37.9251 27.3428 36.0274 28.6285 34.204 30.0999C34.1843 30.1179 34.1635 30.1346 34.1418 30.1502C33.6971 30.5105 33.2567 30.8818 32.8211 31.2641C33.7919 31.6087 34.5627 32.3847 34.905 33.3623C36.8565 31.107 38.5227 28.7259 39.8794 26.2547ZM44.1327 39.3385C43.7351 39.3385 43.4128 39.6631 43.4128 40.0634C43.4128 40.4638 43.7351 40.7884 44.1327 40.7884H44.3624C44.76 40.7884 45.0823 40.4638 45.0823 40.0634C45.0823 39.6631 44.76 39.3385 44.3624 39.3385H44.1327ZM20.3516 28.2927L20.5141 28.129C20.7952 27.8459 20.7951 27.3869 20.5139 27.1038C20.2328 26.8206 19.777 26.8209 19.4958 27.1039L19.3333 27.2675C19.0522 27.5507 19.0523 28.0097 19.3334 28.2928C19.474 28.4343 19.6582 28.5051 19.8424 28.5051C20.0266 28.5051 20.211 28.4342 20.3516 28.2927Z" fill="#F6851D"/>
</svg>
