<svg width="70" height="70" viewBox="0 0 70 70" fill="none" xmlns="http://www.w3.org/2000/svg">
<circle cx="35" cy="35" r="31" stroke="#F6851D" stroke-width="2"/>
<path d="M25.7712 20.9428C25.7712 20.3608 25.9438 19.7918 26.2672 19.3079C26.5905 18.8239 27.0502 18.4467 27.5879 18.224C28.1256 18.0013 28.7173 17.943 29.2882 18.0565C29.859 18.1701 30.3834 18.4504 30.7949 18.8619C31.2065 19.2735 31.4868 19.7978 31.6003 20.3687C31.7139 20.9395 31.6556 21.5312 31.4328 22.069C31.2101 22.6067 30.8329 23.0663 30.349 23.3897C29.865 23.713 29.2961 23.8856 28.714 23.8856C28.3275 23.8859 27.9447 23.81 27.5876 23.6622C27.2304 23.5144 26.9059 23.2976 26.6325 23.0243C26.3592 22.751 26.1425 22.4265 25.9947 22.0693C25.8469 21.7121 25.771 21.3293 25.7712 20.9428ZM35.6023 41.8283L31.9322 36.7163L31.4908 28.5395C31.3857 26.5909 28.7309 26.345 26.3409 26.1495C24.9115 28.571 22.5888 33.0735 21.6114 34.9842C21.4873 35.2288 21.4597 35.5111 21.534 35.7751C21.6084 36.0391 21.7793 36.2655 22.0128 36.4094C22.1409 36.489 22.2837 36.5419 22.4327 36.5649C22.5817 36.5878 22.7339 36.5805 22.88 36.5432C23.026 36.5059 23.1631 36.4394 23.2828 36.3478C23.4026 36.2561 23.5025 36.1412 23.5767 36.01L26.7613 30.3808L27.1523 36.9454L32.4031 43.2178L34.9675 50.4403C35.1556 50.7852 35.455 51.0561 35.817 51.2088C36.1789 51.3616 36.5819 51.387 36.9602 51.2811C37.3563 51.1111 37.6787 50.8054 37.8694 50.4189C38.0602 50.0324 38.1067 49.5905 38.0007 49.1728C37.9587 49.0004 35.6023 41.8283 35.6023 41.8283ZM25.4055 41.9692L20.7664 48.456C20.6276 48.6348 20.5273 48.8403 20.4715 49.0597C20.4158 49.2791 20.406 49.5076 20.4425 49.7309C20.4791 49.9543 20.5614 50.1677 20.6842 50.3578C20.807 50.5479 20.9677 50.7107 21.1562 50.8359C21.3448 50.9611 21.5571 51.0461 21.78 51.0855C22.0029 51.125 22.2315 51.118 22.4515 51.0651C22.6716 51.0122 22.8784 50.9145 23.059 50.778C23.2396 50.6416 23.3901 50.4693 23.5011 50.2721L28.3861 43.7853L28.7393 42.1163L26.2883 39.1903L25.4055 41.9692ZM33.6874 30.2253L33.8513 33.2669L36.977 35.619C37.2639 35.7145 37.5746 35.7098 37.8584 35.6057C38.1422 35.5015 38.3823 35.3041 38.5393 35.0458C38.6963 34.7875 38.761 34.4835 38.7227 34.1836C38.6844 33.8837 38.5455 33.6057 38.3286 33.3951L33.6874 30.2253ZM39.2241 44.0817H60.2441V41.9797H39.2241V44.0817ZM14 44.0817H20.306V41.9797H14V44.0817Z" fill="#F6851D"/>
</svg>
