<svg width="70" height="70" viewBox="0 0 70 70" fill="none" xmlns="http://www.w3.org/2000/svg">
<circle cx="35" cy="35" r="31" stroke="#F6851D" stroke-width="2"/>
<path d="M53.2997 48.372H48.1046L47.0928 45.6647H53.2997C53.4289 45.6647 53.5528 45.6134 53.6441 45.522C53.7354 45.4307 53.7867 45.3068 53.7867 45.1777C53.7867 45.0485 53.7354 44.9246 53.6441 44.8333C53.5528 44.7419 53.4289 44.6906 53.2997 44.6906H46.7324L45.507 41.404C45.507 40.8897 45.4934 40.3787 45.4739 39.8702C45.468 39.7215 45.4603 39.5747 45.4531 39.4267C45.4332 39.0193 45.4072 38.614 45.3752 38.211C45.3641 38.072 45.3544 37.9331 45.3421 37.7947C45.296 37.2752 45.2434 36.7642 45.1771 36.255C45.1739 36.2291 45.17 36.2037 45.1667 36.1784C45.1057 35.7108 45.0369 35.2472 44.957 34.7868C44.918 34.5575 44.8752 34.3322 44.8329 34.1049C44.7907 33.8776 44.7446 33.6438 44.6972 33.4146C44.6381 33.1295 44.5771 32.8457 44.5121 32.5652C44.4849 32.4483 44.455 32.3327 44.4264 32.2158C44.1831 31.2106 43.9017 30.2414 43.5822 29.3085C43.5433 29.1948 43.5036 29.0825 43.4634 28.9702C43.166 28.135 42.8393 27.3359 42.4834 26.5726C42.4042 26.4031 42.3244 26.2343 42.2425 26.0687C42.1451 25.8739 42.0477 25.6752 41.9458 25.4842C41.8341 25.2719 41.7172 25.066 41.6009 24.8602C41.4641 24.6199 41.3241 24.3846 41.1808 24.1543C41.0951 24.016 41.0106 23.8744 40.921 23.74L40.8256 23.5952C40.8204 23.588 40.8132 23.5835 40.808 23.5763C39.8584 22.1105 38.6579 20.8235 37.2617 19.7742C35.7871 18.6489 33.9901 18.027 32.1354 18C31.3657 18.0046 30.5998 18.1072 29.856 18.3052C29.6801 18.3507 29.5054 18.3981 29.3365 18.4507L29.3268 18.4539C28.2568 18.7896 27.2449 19.2881 26.3266 19.9319L26.3195 19.9378C26.3061 19.95 26.2935 19.963 26.2818 19.9767C26.2581 19.9962 26.2363 20.018 26.2169 20.0417C26.2024 20.0644 26.1898 20.0883 26.1792 20.1131C26.1684 20.1314 26.1587 20.1503 26.15 20.1696V20.1761C26.1431 20.2025 26.1386 20.2295 26.1363 20.2566C26.1313 20.2791 26.1278 20.3019 26.1259 20.3248C26.1276 20.3466 26.1306 20.3683 26.135 20.3898C26.1372 20.4189 26.1419 20.4478 26.1493 20.4761V20.4846C26.1565 20.5034 26.1682 20.5183 26.1766 20.5365C26.1876 20.5622 26.2007 20.5869 26.2156 20.6106C26.232 20.6306 26.2497 20.6495 26.2688 20.6671C26.2822 20.6832 26.2965 20.6986 26.3117 20.7132C26.7013 21.0164 27.0708 21.2931 27.4156 21.5515C28.0905 22.0194 28.7238 22.5446 29.3086 23.1211C29.5414 23.329 29.7122 23.5972 29.8021 23.8961C29.8921 24.1949 29.8977 24.5129 29.8184 24.8147C29.7586 25.0576 29.695 25.3031 29.6301 25.5537C29.1594 27.1454 28.9084 28.7938 28.8839 30.4534C28.8254 31.8672 29.0523 33.2784 29.5513 34.6025C30.0503 35.9267 30.811 37.1367 31.788 38.1603C32.8357 39.1932 34.0642 40.025 35.4122 40.6144L30.0996 42.8912C30.0475 42.9143 29.9999 42.9466 29.9593 42.9866C29.9554 42.9899 29.9502 42.9912 29.947 42.9944L28.2488 44.6926H16.487C16.3579 44.6926 16.234 44.7439 16.1427 44.8352C16.0513 44.9265 16 45.0504 16 45.1796C16 45.3088 16.0513 45.4327 16.1427 45.524C16.234 45.6153 16.3579 45.6666 16.487 45.6666H32.1075C32.1958 45.6738 32.5666 45.7251 32.5666 46.0998C32.5615 46.22 32.509 46.3334 32.4205 46.4149C32.332 46.4965 32.2148 46.5396 32.0945 46.5349C31.9653 46.54 31.8435 46.5962 31.7557 46.6911C31.668 46.786 31.6215 46.9119 31.6266 47.0411C31.6317 47.1703 31.6879 47.2921 31.7828 47.3799C31.8777 47.4676 32.0036 47.514 32.1328 47.509H32.1679C32.5336 47.4958 32.8802 47.3424 33.1358 47.0805C33.3914 46.8186 33.5364 46.4683 33.5407 46.1024C33.5398 45.9552 33.5156 45.809 33.4693 45.6692H40.0372L40.4535 48.3765H16.487C16.3579 48.3765 16.234 48.4279 16.1427 48.5192C16.0513 48.6105 16 48.7344 16 48.8636C16 48.9928 16.0513 49.1166 16.1427 49.208C16.234 49.2993 16.3579 49.3506 16.487 49.3506H40.6035L40.7691 50.4299C40.7691 50.4449 40.7743 50.4598 40.7781 50.4747C40.9132 51.0117 41.2234 51.4883 41.6595 51.8293C42.0957 52.1704 42.6331 52.3564 43.1867 52.358C43.393 52.3578 43.5984 52.3322 43.7985 52.282C44.257 52.1665 44.673 51.9222 44.9972 51.578C45.3594 51.699 45.7447 51.7345 46.1229 51.6816C46.5011 51.6288 46.8619 51.4892 47.1771 51.2736C47.4923 51.0581 47.7533 50.7724 47.9396 50.4392C48.126 50.1059 48.2327 49.734 48.2513 49.3526H53.2997C53.4289 49.3526 53.5528 49.3013 53.6441 49.2099C53.7354 49.1186 53.7867 48.9947 53.7867 48.8655C53.7867 48.7364 53.7354 48.6125 53.6441 48.5212C53.5528 48.4298 53.4289 48.3785 53.2997 48.3785V48.372ZM44.2939 37.1739C44.3173 37.3966 44.3427 37.6187 44.3628 37.8434C44.3888 38.137 44.4089 38.4337 44.4277 38.7299C44.4394 38.9007 44.4498 39.0727 44.4595 39.2448C43.7316 37.4484 43.139 35.6 42.6867 33.7153C42.7614 33.6555 42.8387 33.5854 42.9166 33.5133C42.9283 33.5016 42.94 33.4886 42.9523 33.4769C43.0341 33.3977 43.1166 33.3113 43.1984 33.2204L43.2764 33.1321C43.3556 33.0408 43.4326 32.9462 43.5075 32.8483C43.5205 32.8308 43.5342 32.8146 43.5471 32.7977L43.5575 32.7834C43.6744 33.2838 43.7805 33.7897 43.8757 34.301C43.8822 34.3348 43.8887 34.366 43.8946 34.4017C43.9745 34.8329 44.0426 35.2692 44.1076 35.7076C44.1277 35.8498 44.1504 35.9901 44.1725 36.1329C44.2199 36.4778 44.2589 36.8252 44.2965 37.1739H44.2939ZM43.2179 31.4443C43.2179 31.4528 43.2095 31.4651 43.2069 31.4742C43.1861 31.5327 43.1611 31.5895 43.1322 31.6444C43.1199 31.6677 43.1062 31.6924 43.0919 31.7184C43.0562 31.7833 43.0147 31.8515 42.9685 31.9242C42.9523 31.9489 42.938 31.9729 42.9211 31.9989C42.8562 32.0976 42.7828 32.1996 42.7062 32.3009C42.6932 32.3178 42.6796 32.334 42.6659 32.3509C42.601 32.4347 42.5328 32.5158 42.4646 32.5938L42.427 32.634C41.8626 30.2001 41.4665 27.8623 41.2191 26.2051C42.0615 27.8794 42.7321 29.6348 43.2205 31.4443H43.2179ZM28.3456 20.919C28.4625 20.9346 28.5761 20.9508 28.6852 20.9684C28.8229 20.9911 28.956 21.0145 29.0813 21.0405C29.1774 21.0599 29.2761 21.0788 29.3619 21.0995C29.4852 21.1281 29.5989 21.158 29.708 21.1879C29.7781 21.2074 29.8528 21.2268 29.9171 21.2463C30.0333 21.282 30.1359 21.3164 30.2327 21.3509C30.2717 21.3645 30.3178 21.3788 30.3535 21.3924L30.3723 21.3996L29.6703 22.1042C29.1932 21.679 28.6947 21.2785 28.1767 20.9041C28.2332 20.908 28.2917 20.9119 28.3456 20.919ZM36.1116 20.1748L30.8191 23.9543C30.744 23.5447 30.5748 23.1581 30.3249 22.825L31.5588 21.5911C31.5755 21.5709 31.5903 21.5492 31.6029 21.5262C31.6182 21.5089 31.6319 21.4902 31.6438 21.4704C31.6516 21.4554 31.6555 21.4392 31.662 21.4236C31.6685 21.408 31.6724 21.3937 31.6769 21.3775C31.6973 21.3305 31.7038 21.2787 31.6958 21.2281C31.6958 21.2203 31.6958 21.2132 31.6958 21.2054C31.6958 21.1976 31.6958 21.1937 31.6958 21.1879V21.184V21.1749C31.6886 21.1229 31.673 21.0725 31.6497 21.0255L30.6905 19.117C31.1661 19.0252 31.6492 18.9783 32.1335 18.9767C33.5462 18.9914 34.9257 19.4069 36.1116 20.1748ZM29.6216 19.3819H29.6301L29.7203 19.354L30.1983 20.3099C29.568 20.1227 28.922 19.9936 28.2683 19.9242C28.7061 19.7118 29.1583 19.5306 29.6216 19.3819ZM29.8593 30.4514C29.8856 28.8746 30.1259 27.3087 30.5736 25.7966C30.6243 25.6018 30.6736 25.407 30.7217 25.2206L31.9822 24.3205L36.9597 20.7658C38.1203 21.6899 39.1284 22.7909 39.9469 24.0283C40.3364 27.2548 40.9093 30.4565 41.6626 33.6179C42.2671 36.4035 43.2342 39.0979 44.5394 41.632C44.6271 43.0392 44.416 44.9712 43.7725 45.0893C43.7346 45.0951 43.6961 45.0951 43.6582 45.0893C43.1648 44.8878 42.7347 44.5574 42.4127 44.1328C41.8158 43.453 41.2742 42.7266 40.7931 41.9606C40.9743 41.9697 41.1541 41.9846 41.3373 41.9846C41.4019 41.9846 41.466 41.9717 41.5256 41.9467C41.5853 41.9217 41.6393 41.8851 41.6847 41.839C41.73 41.7929 41.7657 41.7382 41.7897 41.6781C41.8137 41.618 41.8254 41.5538 41.8243 41.4891C41.7441 38.9705 41.2618 36.481 40.3957 34.1146C39.1767 30.712 37.4497 27.5134 35.2733 24.6277C35.1992 24.5359 35.0943 24.4741 34.9781 24.4538C34.8619 24.4335 34.7422 24.456 34.6414 24.5173C32.0361 25.705 30.7697 27.9487 30.7697 31.3736C30.77 31.9322 30.8134 32.4899 30.8996 33.0419C31.1827 34.8672 31.9375 36.5871 33.0894 38.0311C32.8777 37.8512 32.6699 37.6668 32.4744 37.4713C31.5903 36.5361 30.903 35.4328 30.4533 34.227C30.0037 33.0211 29.8008 31.7372 29.8567 30.4514H29.8593ZM32.0757 33.8932C32.1367 33.9231 32.201 33.9458 32.2627 33.9744C32.4426 34.0575 32.6231 34.1367 32.8069 34.2107C32.903 34.2497 32.9995 34.2874 33.0965 34.3237C33.3011 34.4004 33.5076 34.4692 33.7154 34.5341C33.7894 34.5575 33.8628 34.5822 33.9375 34.6043C34.5309 34.7769 35.1369 34.903 35.7499 34.9816L35.7765 34.9848C36.0662 35.0212 36.361 35.0452 36.6519 35.0602C36.7169 35.0634 36.776 35.064 36.8383 35.0666C36.9792 35.0718 37.1201 35.0809 37.2617 35.0809C37.3753 35.0809 37.4883 35.0738 37.602 35.0705C37.6513 35.0705 37.7 35.0705 37.7494 35.0666C38.3413 35.0419 38.9307 34.9733 39.5125 34.8614C39.5482 34.8543 39.5839 34.8517 39.6196 34.8446C40.3057 36.8296 40.7144 38.9 40.834 40.9969C40.5686 40.9835 40.306 40.9592 40.0463 40.9242C40.0236 40.917 40.0004 40.9118 39.9768 40.9086C39.9645 40.9086 39.9554 40.8975 39.943 40.8956C39.6528 40.8521 39.3735 40.7969 39.0943 40.7423C37.4134 40.3439 35.8725 39.4961 34.6362 38.2896C33.4 37.0831 32.5149 35.5638 32.0757 33.8932ZM31.7464 31.3723C31.7464 28.5065 32.7303 26.5966 34.7518 25.5466C36.6248 28.12 38.1494 30.9298 39.2859 33.9029C39.1832 33.9224 39.0813 33.9445 38.978 33.9607C38.8449 33.9822 38.7111 34.0016 38.5767 34.0179C38.3585 34.0439 38.1397 34.062 37.9208 34.075C37.8033 34.0822 37.6864 34.0906 37.5689 34.0932C37.3292 34.0997 37.0896 34.0932 36.8506 34.0861C36.7519 34.0828 36.6558 34.0822 36.5545 34.0757C36.2883 34.0581 36.0227 34.0276 35.759 33.9912C35.6876 33.9815 35.6155 33.9757 35.5441 33.9646C35.2189 33.9135 34.8966 33.8486 34.5771 33.7698L34.5466 33.7633C34.2085 33.6767 33.8751 33.5746 33.5465 33.4568C33.5238 33.449 33.503 33.438 33.4816 33.4302C33.1894 33.3228 32.9023 33.2035 32.6205 33.0724C32.5173 33.0237 32.4172 32.9672 32.3153 32.9152C32.1523 32.8321 31.9906 32.747 31.8321 32.6555C31.7754 32.2299 31.7468 31.801 31.7464 31.3716V31.3723ZM29.6275 44.6913L30.2924 44.0263L30.9574 44.6913H29.6275ZM32.3348 44.6913L31.1457 43.5016L36.7097 41.117C37.4368 41.3612 38.1794 41.5564 38.9326 41.7015C39.1034 41.7411 39.2722 41.7852 39.4463 41.8158L39.8878 44.6919L32.3348 44.6913ZM46.148 50.6799C45.7866 50.77 45.4046 50.7238 45.0752 50.5501C44.9689 50.4941 44.8457 50.4794 44.7293 50.5086C44.6128 50.5378 44.5112 50.609 44.444 50.7085C44.2819 50.9496 44.0539 51.1389 43.7871 51.2538C43.5203 51.3687 43.2261 51.4043 42.9396 51.3563C42.6531 51.3084 42.3865 51.1789 42.1717 50.9834C41.9568 50.7879 41.8029 50.5346 41.7282 50.2539L40.7009 43.5652L40.7372 43.6139C40.8424 43.7581 40.9502 43.9029 41.0619 44.0458L41.071 44.0575C41.184 44.2016 41.3003 44.3419 41.4184 44.4802L41.5198 44.5958C41.6137 44.7023 41.7085 44.8051 41.8042 44.9043C41.836 44.9367 41.8691 44.9692 41.8983 45.0023C42.0217 45.1257 42.1458 45.2426 42.2705 45.3498C42.2958 45.3712 42.3205 45.39 42.3458 45.4108C42.4475 45.4974 42.5499 45.5749 42.6529 45.6433C42.69 45.6692 42.7263 45.6939 42.7633 45.7173C42.8694 45.7857 42.98 45.8467 43.0945 45.8998C43.1108 45.9076 43.1276 45.918 43.1439 45.9251C43.2614 45.9757 43.3843 46.0127 43.5101 46.0355C43.5426 46.0414 43.5751 46.0433 43.6069 46.0472C43.6533 46.0551 43.7001 46.0605 43.7472 46.0634C43.8143 46.0636 43.8812 46.0575 43.9472 46.0452C44.0562 46.0252 44.1623 45.9914 44.2628 45.9446C44.2959 45.9296 44.3238 45.9063 44.355 45.8887C44.4175 45.8557 44.4775 45.8179 44.5342 45.7757C44.568 45.7485 44.5992 45.7147 44.6297 45.6842C44.677 45.641 44.722 45.5955 44.7648 45.5478C44.7953 45.5101 44.8219 45.4679 44.8505 45.4277C44.8868 45.3757 44.9245 45.3257 44.9576 45.2692C44.9843 45.2244 45.007 45.1757 45.031 45.1283C45.0602 45.0699 45.0901 45.0127 45.1167 44.951C45.1382 44.8997 45.157 44.8452 45.1771 44.7919C45.1973 44.7387 45.2239 44.6672 45.2421 44.6023C45.2602 44.5374 45.2752 44.488 45.2908 44.4302C45.3064 44.3724 45.3265 44.3003 45.3421 44.2315C45.3577 44.1627 45.3667 44.1133 45.3791 44.0536C45.3869 44.0107 45.3979 43.9691 45.4051 43.9237L47.25 48.8591C47.3416 49.2461 47.2774 49.6537 47.0713 49.9938C46.8651 50.334 46.5335 50.5795 46.148 50.6773V50.6799Z" fill="#F6851D"/>
<path d="M32.5937 21.5717C32.7488 21.5715 32.9004 21.5254 33.0294 21.4391C33.1583 21.3529 33.2587 21.2303 33.318 21.087C33.3773 20.9436 33.3927 20.7859 33.3624 20.6338C33.332 20.4816 33.2573 20.3419 33.1475 20.2323C33.0378 20.1226 32.898 20.048 32.7459 20.0178C32.5937 19.9876 32.436 20.0031 32.2927 20.0625C32.1494 20.1219 32.0269 20.2225 31.9408 20.3515C31.8546 20.4805 31.8086 20.6321 31.8086 20.7872C31.8088 20.9953 31.8916 21.1949 32.0388 21.342C32.186 21.4891 32.3856 21.5717 32.5937 21.5717Z" fill="#F6851D"/>
</svg>
